<?xml version="1.0" encoding="iso-8859-1"?>
<!-- Generator: Adobe Illustrator 17.1.0, SVG Export Plug-In . SVG Version: 6.00 Build 0)  -->
<!DOCTYPE svg PUBLIC "-//W3C//DTD SVG 1.1//EN" "http://www.w3.org/Graphics/SVG/1.1/DTD/svg11.dtd">
<svg version="1.1" id="Capa_1" xmlns="http://www.w3.org/2000/svg" xmlns:xlink="http://www.w3.org/1999/xlink" x="0px" y="0px"
	 viewBox="0 0 331.086 331.086" style="enable-background:new 0 0 331.086 331.086;" xml:space="preserve">
<g>
	<path d="M323.586,158.043h-9.362c-1.28-8.949-4.805-17.182-9.999-24.101l6.631-6.631c2.929-2.929,2.929-7.678,0-10.606
		c-2.93-2.929-7.678-2.929-10.607,0l-6.63,6.63c-6.919-5.193-15.152-8.719-24.101-9.998v-9.362c0-4.142-3.357-7.5-7.5-7.5
		s-7.5,3.358-7.5,7.5v9.362c-8.948,1.28-17.182,4.805-24.1,9.998l-6.63-6.63c-2.93-2.929-7.678-2.929-10.607,0
		c-2.929,2.929-2.929,7.678,0,10.606l6.631,6.631c-5.193,6.918-8.719,15.152-9.999,24.101h-9.362c-4.143,0-7.5,3.358-7.5,7.5
		s3.357,7.5,7.5,7.5h9.362c1.28,8.949,4.805,17.182,9.999,24.101l-6.631,6.631c-2.929,2.929-2.929,7.678,0,10.606
		c1.465,1.464,3.385,2.197,5.304,2.197s3.839-0.732,5.304-2.197l6.63-6.63c6.918,5.193,15.152,8.718,24.1,9.998v9.362
		c0,4.142,3.357,7.5,7.5,7.5s7.5-3.358,7.5-7.5v-9.362c8.949-1.28,17.183-4.805,24.101-9.998l6.63,6.63
		c1.465,1.465,3.384,2.197,5.304,2.197c1.919,0,3.839-0.732,5.303-2.197c2.93-2.929,2.93-7.677,0.001-10.606l-6.63-6.631
		c5.193-6.918,8.718-15.152,9.998-24.101h9.362c4.143,0,7.5-3.358,7.5-7.5S327.729,158.043,323.586,158.043z M224.27,165.543
		c0-20.814,16.934-37.748,37.748-37.748s37.749,16.934,37.749,37.748s-16.935,37.748-37.749,37.748S224.27,186.357,224.27,165.543z"
		/>
	<path d="M269.522,165.543c0-1.97-0.81-3.91-2.199-5.3c-1.4-1.4-3.33-2.2-5.311-2.2c-1.97,0-3.9,0.8-5.3,2.2
		c-1.4,1.39-2.2,3.33-2.2,5.3c0,1.97,0.8,3.91,2.2,5.3c1.399,1.4,3.33,2.2,5.3,2.2c1.98,0,3.91-0.8,5.311-2.2
		C268.713,169.443,269.522,167.513,269.522,165.543z"/>
	<path d="M262.018,243.459H23.298l82.494-70.485l24.127,20.381c1.397,1.18,3.118,1.771,4.84,1.771s3.442-0.59,4.84-1.771
		l56.551-47.77c3.164-2.673,3.563-7.405,0.89-10.569c-2.672-3.165-7.404-3.563-10.569-0.89l-51.711,43.682L28.001,87.626h234.017
		c4.143,0,7.5-3.358,7.5-7.5s-3.357-7.5-7.5-7.5H7.5c-0.087,0-0.171,0.01-0.258,0.013c-0.145,0.005-0.291,0.009-0.435,0.022
		c-0.126,0.012-0.249,0.032-0.373,0.049c-0.116,0.017-0.233,0.031-0.348,0.053c-0.134,0.026-0.264,0.059-0.395,0.091
		c-0.105,0.026-0.21,0.05-0.314,0.081c-0.129,0.038-0.254,0.083-0.38,0.127c-0.105,0.037-0.211,0.073-0.314,0.115
		c-0.116,0.047-0.228,0.1-0.341,0.152c-0.111,0.051-0.221,0.102-0.33,0.159c-0.102,0.053-0.199,0.112-0.298,0.17
		c-0.113,0.066-0.226,0.131-0.335,0.204c-0.093,0.061-0.182,0.128-0.271,0.193C3,74.134,2.893,74.21,2.789,74.294
		c-0.094,0.076-0.182,0.157-0.272,0.237c-0.091,0.082-0.184,0.16-0.272,0.247c-0.106,0.104-0.204,0.215-0.304,0.325
		c-0.056,0.062-0.117,0.119-0.171,0.183c-0.009,0.01-0.016,0.022-0.025,0.033c-0.112,0.134-0.215,0.275-0.318,0.417
		c-0.043,0.06-0.092,0.117-0.133,0.178C1.189,76.069,1.094,76.232,1,76.395c-0.029,0.051-0.064,0.1-0.092,0.151
		c-0.106,0.194-0.2,0.395-0.289,0.598c-0.068,0.156-0.125,0.316-0.181,0.475c-0.036,0.1-0.076,0.198-0.107,0.301
		c-0.07,0.227-0.129,0.456-0.177,0.688c-0.013,0.061-0.018,0.124-0.029,0.186c-0.032,0.182-0.064,0.363-0.083,0.546
		c-0.008,0.076-0.008,0.154-0.014,0.231c-0.012,0.171-0.025,0.343-0.026,0.514C0.002,80.099,0,80.112,0,80.126v170.833
		c0,4.142,3.357,7.5,7.5,7.5h254.518c4.143,0,7.5-3.358,7.5-7.5S266.16,243.459,262.018,243.459z M15,230.819V96.28l79.18,66.886
		L15,230.819z"/>
</g>
<g>
</g>
<g>
</g>
<g>
</g>
<g>
</g>
<g>
</g>
<g>
</g>
<g>
</g>
<g>
</g>
<g>
</g>
<g>
</g>
<g>
</g>
<g>
</g>
<g>
</g>
<g>
</g>
<g>
</g>
</svg>
